<svg xmlns="http://www.w3.org/2000/svg" width="23.096" height="28.369" viewBox="0 0 23.096 28.369">
  <path id="_866aef4d3e823631589650748782f7f7" data-name="866aef4d3e823631589650748782f7f7" d="M19.577,6.524A6.212,6.212,0,0,0,21.08,2a6.3,6.3,0,0,0-4.255,2.156,5.914,5.914,0,0,0-1.418,4.383,5.234,5.234,0,0,0,4.17-2.014Zm3.574,10.552a6.4,6.4,0,0,1,3.064-5.4,6.609,6.609,0,0,0-5.191-2.837c-2.213-.227-4.255,1.291-5.432,1.291s-2.837-1.262-4.68-1.234a6.978,6.978,0,0,0-5.872,3.588c-2.5,4.34-.638,10.794,1.858,14.3,1.135,1.716,2.553,3.659,4.425,3.588S13.8,29.2,15.974,29.2s2.837,1.163,4.68,1.12,3.149-1.759,4.34-3.475a15.6,15.6,0,0,0,1.957-4.042,6.255,6.255,0,0,1-3.8-5.73Z" transform="translate(-3.856 -2)"/>
</svg>
