<svg xmlns="http://www.w3.org/2000/svg" width="19.393" height="13.091" viewBox="0 0 19.393 13.091">
  <path id="Icon_zocial-email" data-name="Icon zocial-email" d="M.072,16V5.227q0-.019.056-.355L6.468,10.3.147,16.373A1.585,1.585,0,0,1,.072,16ZM.914,4.124a.806.806,0,0,1,.318-.056H18.306a1.059,1.059,0,0,1,.337.056L12.284,9.566l-.842.673L9.778,11.6,8.114,10.239l-.842-.673ZM.932,17.1l6.377-6.115,2.469,2,2.469-2L18.624,17.1a.9.9,0,0,1-.318.056H1.231a.847.847,0,0,1-.3-.056ZM13.088,10.3l6.321-5.423a1.116,1.116,0,0,1,.056.355V16a1.433,1.433,0,0,1-.056.374Z" transform="translate(-0.072 -4.068)" opacity="0.4"/>
</svg>
