<svg xmlns="http://www.w3.org/2000/svg" width="32.898" height="24.251" viewBox="0 0 32.898 24.251">
  <g id="_1f45d496c65d318520a88086c78dee4b" data-name="1f45d496c65d318520a88086c78dee4b" transform="translate(0.271 0.271)">
    <path id="Path_103" data-name="Path 103" d="M32.814,34.533H6.036a2.793,2.793,0,0,1-2.789-2.789V13.613a2.793,2.793,0,0,1,2.789-2.789H32.814A2.793,2.793,0,0,1,35.6,13.613V31.744A2.793,2.793,0,0,1,32.814,34.533ZM6.036,11.939a1.675,1.675,0,0,0-1.674,1.674V31.744a1.675,1.675,0,0,0,1.674,1.674H32.814a1.675,1.675,0,0,0,1.674-1.674V13.613a1.675,1.675,0,0,0-1.674-1.674Z" transform="translate(-3.247 -10.824)" fill="#505070" stroke="#707070" stroke-width="0.541"/>
    <path id="Path_104" data-name="Path 104" d="M19.687,26.009a1.671,1.671,0,0,1-.964-.307L4.068,17.277a.558.558,0,1,1,.556-.967l14.732,8.474a.557.557,0,0,0,.662,0l.052-.034,14.68-8.439a.558.558,0,0,1,.556.967L20.651,25.7a1.671,1.671,0,0,1-.964.307Z" transform="translate(-3.509 -13.446)" fill="#505070" stroke="#707070" stroke-width="0.541"/>
  </g>
</svg>
