<svg id="_19f95dd6cbe7a9097a9c5697b4514fe6" data-name="19f95dd6cbe7a9097a9c5697b4514fe6" xmlns="http://www.w3.org/2000/svg" width="30.288" height="30.288" viewBox="0 0 30.288 30.288">
  <path id="Path_111" data-name="Path 111" d="M26.5,0H3.786A3.79,3.79,0,0,0,0,3.786V26.5a3.79,3.79,0,0,0,3.786,3.786H26.5A3.79,3.79,0,0,0,30.288,26.5V3.786A3.79,3.79,0,0,0,26.5,0Z" fill="#1976d2"/>
  <path id="Path_112" data-name="Path 112" d="M20.664,12.776H15.776V8.866c0-1.079.876-.978,1.955-.978h1.955V3h-3.91A5.866,5.866,0,0,0,9.91,8.866v3.91H6v4.888H9.91V28.418h5.866V17.664h2.933Z" transform="translate(2.921 1.869)" fill="#fafafa" fill-rule="evenodd"/>
</svg>
