<svg xmlns="http://www.w3.org/2000/svg" width="29.95" height="30.558" viewBox="0 0 29.95 30.558">
  <g id="Group_58" data-name="Group 58" transform="translate(-79.472 0.088)">
    <g id="google_logo" data-name="google logo" transform="translate(79.56)">
      <path id="Path_99" data-name="Path 99" d="M37.583,21.915a13.018,13.018,0,0,0-.321-3.106H23v5.637h8.372a7.424,7.424,0,0,1-3.106,4.929l-.028.189,4.51,3.493.312.031a14.853,14.853,0,0,0,4.523-11.174" transform="translate(-7.809 -6.386)" fill="#4285f4" stroke="#707070" stroke-width="0.176"/>
      <path id="Path_100" data-name="Path 100" d="M16.024,39.735a14.479,14.479,0,0,0,10.06-3.68L21.29,32.342a8.991,8.991,0,0,1-5.266,1.519,9.145,9.145,0,0,1-8.642-6.313l-.178.015L2.515,31.193l-.061.17a15.18,15.18,0,0,0,13.57,8.372" transform="translate(-0.833 -9.354)" fill="#34a853" stroke="#707070" stroke-width="0.176"/>
      <path id="Path_101" data-name="Path 101" d="M6.549,22.461a9.352,9.352,0,0,1-.506-3,9.827,9.827,0,0,1,.489-3l-.008-.2L1.776,12.564l-.155.074a15.159,15.159,0,0,0,0,13.638l4.929-3.815" transform="translate(0 -4.266)" fill="#fbbc05" stroke="#707070" stroke-width="0.176"/>
      <path id="Path_102" data-name="Path 102" d="M16.024,5.874A8.419,8.419,0,0,1,21.9,8.136L26.185,3.95A14.6,14.6,0,0,0,16.024,0,15.18,15.18,0,0,0,2.453,8.372l4.912,3.815a9.182,9.182,0,0,1,8.659-6.313" transform="translate(-0.833)" fill="#eb4335" stroke="#707070" stroke-width="0.176"/>
    </g>
  </g>
</svg>
