<svg xmlns="http://www.w3.org/2000/svg" width="15.877" height="15.874" viewBox="0 0 15.877 15.874">
  <path id="Icon_awesome-instagram" data-name="Icon awesome-instagram" d="M7.935,6.1a4.07,4.07,0,1,0,4.07,4.07A4.063,4.063,0,0,0,7.935,6.1Zm0,6.716a2.646,2.646,0,1,1,2.646-2.646,2.651,2.651,0,0,1-2.646,2.646Zm5.186-6.882a.949.949,0,1,1-.949-.949A.947.947,0,0,1,13.121,5.938Zm2.7.963a4.7,4.7,0,0,0-1.282-3.326,4.729,4.729,0,0,0-3.326-1.282c-1.311-.074-5.239-.074-6.549,0A4.722,4.722,0,0,0,1.333,3.572,4.713,4.713,0,0,0,.051,6.9c-.074,1.311-.074,5.239,0,6.549a4.7,4.7,0,0,0,1.282,3.326,4.735,4.735,0,0,0,3.326,1.282c1.311.074,5.239.074,6.549,0a4.7,4.7,0,0,0,3.326-1.282,4.729,4.729,0,0,0,1.282-3.326c.074-1.311.074-5.235,0-6.546Zm-1.693,7.952a2.679,2.679,0,0,1-1.509,1.509c-1.045.414-3.524.319-4.679.319a17.631,17.631,0,0,1-4.679-.319,2.679,2.679,0,0,1-1.509-1.509c-.414-1.045-.319-3.524-.319-4.679A17.631,17.631,0,0,1,1.747,5.5,2.679,2.679,0,0,1,3.256,3.987C4.3,3.572,6.78,3.668,7.935,3.668a17.631,17.631,0,0,1,4.679.319A2.679,2.679,0,0,1,14.123,5.5c.414,1.045.319,3.524.319,4.679S14.538,13.812,14.123,14.854Z" transform="translate(0.005 -2.238)" opacity="0.4"/>
</svg>
